<mxfile host="app.diagrams.net" modified="2024-03-01T02:21:22.163Z" agent="Mozilla/5.0 (Windows NT 10.0; Win64; x64) AppleWebKit/537.36 (KHTML, like Gecko) Chrome/121.0.0.0 Safari/537.36" version="24.0.0" etag="9uTmz3-5zY0q6qZhCYfq" type="github">
  <diagram name="第 1 页" id="rKr3Fed1kXl4g8ZNvlNc">
    <mxGraphModel>
      <root>
        <mxCell id="0" />
        <mxCell id="1" parent="0" />
      </root>
    </mxGraphModel>
  </diagram>
</mxfile>
